<?xml version="1.0" standalone="no"?>
<svg xmlns="http://www.w3.org/2000/svg" version="1.1" width="627" height="627">
	<!-- Created with https://api.qrserver.com (QR Code API, see goQR.me/api for information) -->
	<title>QR Code</title>
	<desc>https://afedortsovbn-commits.github.io/fedortsov-card/</desc>
	<rect style="fill:rgb(255, 255, 255);fill-opacity:1" x="0" y="0" width="627" height="627" />
	<g id="elements">
		<path style="fill:rgb(0, 0, 0)" d="M 0,0 l 19,0 0,19 -19,0 z M 19,0 l 19,0 0,19 -19,0 z M 38,0 l 19,0 0,19 -19,0 z M 57,0 l 19,0 0,19 -19,0 z M 76,0 l 19,0 0,19 -19,0 z M 95,0 l 19,0 0,19 -19,0 z M 114,0 l 19,0 0,19 -19,0 z M 171,0 l 19,0 0,19 -19,0 z M 285,0 l 19,0 0,19 -19,0 z M 304,0 l 19,0 0,19 -19,0 z M 361,0 l 19,0 0,19 -19,0 z M 380,0 l 19,0 0,19 -19,0 z M 399,0 l 19,0 0,19 -19,0 z M 418,0 l 19,0 0,19 -19,0 z M 437,0 l 19,0 0,19 -19,0 z M 494,0 l 19,0 0,19 -19,0 z M 513,0 l 19,0 0,19 -19,0 z M 532,0 l 19,0 0,19 -19,0 z M 551,0 l 19,0 0,19 -19,0 z M 570,0 l 19,0 0,19 -19,0 z M 589,0 l 19,0 0,19 -19,0 z M 608,0 l 19,0 0,19 -19,0 z M 0,19 l 19,0 0,19 -19,0 z M 114,19 l 19,0 0,19 -19,0 z M 152,19 l 19,0 0,19 -19,0 z M 171,19 l 19,0 0,19 -19,0 z M 209,19 l 19,0 0,19 -19,0 z M 228,19 l 19,0 0,19 -19,0 z M 323,19 l 19,0 0,19 -19,0 z M 342,19 l 19,0 0,19 -19,0 z M 380,19 l 19,0 0,19 -19,0 z M 456,19 l 19,0 0,19 -19,0 z M 494,19 l 19,0 0,19 -19,0 z M 608,19 l 19,0 0,19 -19,0 z M 0,38 l 19,0 0,19 -19,0 z M 38,38 l 19,0 0,19 -19,0 z M 57,38 l 19,0 0,19 -19,0 z M 76,38 l 19,0 0,19 -19,0 z M 114,38 l 19,0 0,19 -19,0 z M 171,38 l 19,0 0,19 -19,0 z M 190,38 l 19,0 0,19 -19,0 z M 209,38 l 19,0 0,19 -19,0 z M 266,38 l 19,0 0,19 -19,0 z M 304,38 l 19,0 0,19 -19,0 z M 342,38 l 19,0 0,19 -19,0 z M 361,38 l 19,0 0,19 -19,0 z M 380,38 l 19,0 0,19 -19,0 z M 399,38 l 19,0 0,19 -19,0 z M 418,38 l 19,0 0,19 -19,0 z M 494,38 l 19,0 0,19 -19,0 z M 532,38 l 19,0 0,19 -19,0 z M 551,38 l 19,0 0,19 -19,0 z M 570,38 l 19,0 0,19 -19,0 z M 608,38 l 19,0 0,19 -19,0 z M 0,57 l 19,0 0,19 -19,0 z M 38,57 l 19,0 0,19 -19,0 z M 57,57 l 19,0 0,19 -19,0 z M 76,57 l 19,0 0,19 -19,0 z M 114,57 l 19,0 0,19 -19,0 z M 152,57 l 19,0 0,19 -19,0 z M 171,57 l 19,0 0,19 -19,0 z M 209,57 l 19,0 0,19 -19,0 z M 304,57 l 19,0 0,19 -19,0 z M 323,57 l 19,0 0,19 -19,0 z M 361,57 l 19,0 0,19 -19,0 z M 494,57 l 19,0 0,19 -19,0 z M 532,57 l 19,0 0,19 -19,0 z M 551,57 l 19,0 0,19 -19,0 z M 570,57 l 19,0 0,19 -19,0 z M 608,57 l 19,0 0,19 -19,0 z M 0,76 l 19,0 0,19 -19,0 z M 38,76 l 19,0 0,19 -19,0 z M 57,76 l 19,0 0,19 -19,0 z M 76,76 l 19,0 0,19 -19,0 z M 114,76 l 19,0 0,19 -19,0 z M 190,76 l 19,0 0,19 -19,0 z M 228,76 l 19,0 0,19 -19,0 z M 247,76 l 19,0 0,19 -19,0 z M 266,76 l 19,0 0,19 -19,0 z M 285,76 l 19,0 0,19 -19,0 z M 361,76 l 19,0 0,19 -19,0 z M 380,76 l 19,0 0,19 -19,0 z M 437,76 l 19,0 0,19 -19,0 z M 494,76 l 19,0 0,19 -19,0 z M 532,76 l 19,0 0,19 -19,0 z M 551,76 l 19,0 0,19 -19,0 z M 570,76 l 19,0 0,19 -19,0 z M 608,76 l 19,0 0,19 -19,0 z M 0,95 l 19,0 0,19 -19,0 z M 114,95 l 19,0 0,19 -19,0 z M 152,95 l 19,0 0,19 -19,0 z M 190,95 l 19,0 0,19 -19,0 z M 247,95 l 19,0 0,19 -19,0 z M 266,95 l 19,0 0,19 -19,0 z M 285,95 l 19,0 0,19 -19,0 z M 304,95 l 19,0 0,19 -19,0 z M 418,95 l 19,0 0,19 -19,0 z M 494,95 l 19,0 0,19 -19,0 z M 608,95 l 19,0 0,19 -19,0 z M 0,114 l 19,0 0,19 -19,0 z M 19,114 l 19,0 0,19 -19,0 z M 38,114 l 19,0 0,19 -19,0 z M 57,114 l 19,0 0,19 -19,0 z M 76,114 l 19,0 0,19 -19,0 z M 95,114 l 19,0 0,19 -19,0 z M 114,114 l 19,0 0,19 -19,0 z M 152,114 l 19,0 0,19 -19,0 z M 190,114 l 19,0 0,19 -19,0 z M 228,114 l 19,0 0,19 -19,0 z M 266,114 l 19,0 0,19 -19,0 z M 304,114 l 19,0 0,19 -19,0 z M 342,114 l 19,0 0,19 -19,0 z M 380,114 l 19,0 0,19 -19,0 z M 418,114 l 19,0 0,19 -19,0 z M 456,114 l 19,0 0,19 -19,0 z M 494,114 l 19,0 0,19 -19,0 z M 513,114 l 19,0 0,19 -19,0 z M 532,114 l 19,0 0,19 -19,0 z M 551,114 l 19,0 0,19 -19,0 z M 570,114 l 19,0 0,19 -19,0 z M 589,114 l 19,0 0,19 -19,0 z M 608,114 l 19,0 0,19 -19,0 z M 228,133 l 19,0 0,19 -19,0 z M 247,133 l 19,0 0,19 -19,0 z M 285,133 l 19,0 0,19 -19,0 z M 342,133 l 19,0 0,19 -19,0 z M 380,133 l 19,0 0,19 -19,0 z M 399,133 l 19,0 0,19 -19,0 z M 456,133 l 19,0 0,19 -19,0 z M 0,152 l 19,0 0,19 -19,0 z M 19,152 l 19,0 0,19 -19,0 z M 38,152 l 19,0 0,19 -19,0 z M 57,152 l 19,0 0,19 -19,0 z M 76,152 l 19,0 0,19 -19,0 z M 114,152 l 19,0 0,19 -19,0 z M 133,152 l 19,0 0,19 -19,0 z M 152,152 l 19,0 0,19 -19,0 z M 171,152 l 19,0 0,19 -19,0 z M 190,152 l 19,0 0,19 -19,0 z M 228,152 l 19,0 0,19 -19,0 z M 266,152 l 19,0 0,19 -19,0 z M 285,152 l 19,0 0,19 -19,0 z M 323,152 l 19,0 0,19 -19,0 z M 418,152 l 19,0 0,19 -19,0 z M 437,152 l 19,0 0,19 -19,0 z M 456,152 l 19,0 0,19 -19,0 z M 475,152 l 19,0 0,19 -19,0 z M 513,152 l 19,0 0,19 -19,0 z M 551,152 l 19,0 0,19 -19,0 z M 589,152 l 19,0 0,19 -19,0 z M 0,171 l 19,0 0,19 -19,0 z M 19,171 l 19,0 0,19 -19,0 z M 38,171 l 19,0 0,19 -19,0 z M 76,171 l 19,0 0,19 -19,0 z M 152,171 l 19,0 0,19 -19,0 z M 171,171 l 19,0 0,19 -19,0 z M 285,171 l 19,0 0,19 -19,0 z M 304,171 l 19,0 0,19 -19,0 z M 361,171 l 19,0 0,19 -19,0 z M 380,171 l 19,0 0,19 -19,0 z M 399,171 l 19,0 0,19 -19,0 z M 437,171 l 19,0 0,19 -19,0 z M 475,171 l 19,0 0,19 -19,0 z M 494,171 l 19,0 0,19 -19,0 z M 570,171 l 19,0 0,19 -19,0 z M 589,171 l 19,0 0,19 -19,0 z M 608,171 l 19,0 0,19 -19,0 z M 0,190 l 19,0 0,19 -19,0 z M 38,190 l 19,0 0,19 -19,0 z M 57,190 l 19,0 0,19 -19,0 z M 76,190 l 19,0 0,19 -19,0 z M 95,190 l 19,0 0,19 -19,0 z M 114,190 l 19,0 0,19 -19,0 z M 152,190 l 19,0 0,19 -19,0 z M 171,190 l 19,0 0,19 -19,0 z M 209,190 l 19,0 0,19 -19,0 z M 228,190 l 19,0 0,19 -19,0 z M 323,190 l 19,0 0,19 -19,0 z M 342,190 l 19,0 0,19 -19,0 z M 380,190 l 19,0 0,19 -19,0 z M 418,190 l 19,0 0,19 -19,0 z M 513,190 l 19,0 0,19 -19,0 z M 551,190 l 19,0 0,19 -19,0 z M 589,190 l 19,0 0,19 -19,0 z M 0,209 l 19,0 0,19 -19,0 z M 19,209 l 19,0 0,19 -19,0 z M 95,209 l 19,0 0,19 -19,0 z M 133,209 l 19,0 0,19 -19,0 z M 152,209 l 19,0 0,19 -19,0 z M 171,209 l 19,0 0,19 -19,0 z M 190,209 l 19,0 0,19 -19,0 z M 209,209 l 19,0 0,19 -19,0 z M 266,209 l 19,0 0,19 -19,0 z M 304,209 l 19,0 0,19 -19,0 z M 380,209 l 19,0 0,19 -19,0 z M 399,209 l 19,0 0,19 -19,0 z M 418,209 l 19,0 0,19 -19,0 z M 475,209 l 19,0 0,19 -19,0 z M 494,209 l 19,0 0,19 -19,0 z M 570,209 l 19,0 0,19 -19,0 z M 0,228 l 19,0 0,19 -19,0 z M 38,228 l 19,0 0,19 -19,0 z M 57,228 l 19,0 0,19 -19,0 z M 95,228 l 19,0 0,19 -19,0 z M 114,228 l 19,0 0,19 -19,0 z M 133,228 l 19,0 0,19 -19,0 z M 152,228 l 19,0 0,19 -19,0 z M 171,228 l 19,0 0,19 -19,0 z M 209,228 l 19,0 0,19 -19,0 z M 304,228 l 19,0 0,19 -19,0 z M 323,228 l 19,0 0,19 -19,0 z M 418,228 l 19,0 0,19 -19,0 z M 437,228 l 19,0 0,19 -19,0 z M 456,228 l 19,0 0,19 -19,0 z M 475,228 l 19,0 0,19 -19,0 z M 532,228 l 19,0 0,19 -19,0 z M 551,228 l 19,0 0,19 -19,0 z M 0,247 l 19,0 0,19 -19,0 z M 38,247 l 19,0 0,19 -19,0 z M 57,247 l 19,0 0,19 -19,0 z M 133,247 l 19,0 0,19 -19,0 z M 171,247 l 19,0 0,19 -19,0 z M 190,247 l 19,0 0,19 -19,0 z M 228,247 l 19,0 0,19 -19,0 z M 247,247 l 19,0 0,19 -19,0 z M 266,247 l 19,0 0,19 -19,0 z M 285,247 l 19,0 0,19 -19,0 z M 323,247 l 19,0 0,19 -19,0 z M 342,247 l 19,0 0,19 -19,0 z M 361,247 l 19,0 0,19 -19,0 z M 380,247 l 19,0 0,19 -19,0 z M 437,247 l 19,0 0,19 -19,0 z M 494,247 l 19,0 0,19 -19,0 z M 589,247 l 19,0 0,19 -19,0 z M 608,247 l 19,0 0,19 -19,0 z M 0,266 l 19,0 0,19 -19,0 z M 57,266 l 19,0 0,19 -19,0 z M 95,266 l 19,0 0,19 -19,0 z M 114,266 l 19,0 0,19 -19,0 z M 152,266 l 19,0 0,19 -19,0 z M 171,266 l 19,0 0,19 -19,0 z M 190,266 l 19,0 0,19 -19,0 z M 247,266 l 19,0 0,19 -19,0 z M 266,266 l 19,0 0,19 -19,0 z M 285,266 l 19,0 0,19 -19,0 z M 304,266 l 19,0 0,19 -19,0 z M 323,266 l 19,0 0,19 -19,0 z M 399,266 l 19,0 0,19 -19,0 z M 475,266 l 19,0 0,19 -19,0 z M 494,266 l 19,0 0,19 -19,0 z M 513,266 l 19,0 0,19 -19,0 z M 532,266 l 19,0 0,19 -19,0 z M 589,266 l 19,0 0,19 -19,0 z M 0,285 l 19,0 0,19 -19,0 z M 19,285 l 19,0 0,19 -19,0 z M 38,285 l 19,0 0,19 -19,0 z M 57,285 l 19,0 0,19 -19,0 z M 133,285 l 19,0 0,19 -19,0 z M 152,285 l 19,0 0,19 -19,0 z M 171,285 l 19,0 0,19 -19,0 z M 190,285 l 19,0 0,19 -19,0 z M 228,285 l 19,0 0,19 -19,0 z M 247,285 l 19,0 0,19 -19,0 z M 285,285 l 19,0 0,19 -19,0 z M 361,285 l 19,0 0,19 -19,0 z M 380,285 l 19,0 0,19 -19,0 z M 399,285 l 19,0 0,19 -19,0 z M 418,285 l 19,0 0,19 -19,0 z M 475,285 l 19,0 0,19 -19,0 z M 494,285 l 19,0 0,19 -19,0 z M 513,285 l 19,0 0,19 -19,0 z M 570,285 l 19,0 0,19 -19,0 z M 0,304 l 19,0 0,19 -19,0 z M 19,304 l 19,0 0,19 -19,0 z M 38,304 l 19,0 0,19 -19,0 z M 76,304 l 19,0 0,19 -19,0 z M 114,304 l 19,0 0,19 -19,0 z M 228,304 l 19,0 0,19 -19,0 z M 266,304 l 19,0 0,19 -19,0 z M 285,304 l 19,0 0,19 -19,0 z M 323,304 l 19,0 0,19 -19,0 z M 418,304 l 19,0 0,19 -19,0 z M 437,304 l 19,0 0,19 -19,0 z M 456,304 l 19,0 0,19 -19,0 z M 475,304 l 19,0 0,19 -19,0 z M 532,304 l 19,0 0,19 -19,0 z M 589,304 l 19,0 0,19 -19,0 z M 19,323 l 19,0 0,19 -19,0 z M 38,323 l 19,0 0,19 -19,0 z M 95,323 l 19,0 0,19 -19,0 z M 133,323 l 19,0 0,19 -19,0 z M 152,323 l 19,0 0,19 -19,0 z M 285,323 l 19,0 0,19 -19,0 z M 304,323 l 19,0 0,19 -19,0 z M 361,323 l 19,0 0,19 -19,0 z M 380,323 l 19,0 0,19 -19,0 z M 399,323 l 19,0 0,19 -19,0 z M 418,323 l 19,0 0,19 -19,0 z M 437,323 l 19,0 0,19 -19,0 z M 475,323 l 19,0 0,19 -19,0 z M 494,323 l 19,0 0,19 -19,0 z M 551,323 l 19,0 0,19 -19,0 z M 589,323 l 19,0 0,19 -19,0 z M 608,323 l 19,0 0,19 -19,0 z M 0,342 l 19,0 0,19 -19,0 z M 19,342 l 19,0 0,19 -19,0 z M 38,342 l 19,0 0,19 -19,0 z M 76,342 l 19,0 0,19 -19,0 z M 114,342 l 19,0 0,19 -19,0 z M 133,342 l 19,0 0,19 -19,0 z M 171,342 l 19,0 0,19 -19,0 z M 190,342 l 19,0 0,19 -19,0 z M 209,342 l 19,0 0,19 -19,0 z M 228,342 l 19,0 0,19 -19,0 z M 323,342 l 19,0 0,19 -19,0 z M 380,342 l 19,0 0,19 -19,0 z M 399,342 l 19,0 0,19 -19,0 z M 418,342 l 19,0 0,19 -19,0 z M 475,342 l 19,0 0,19 -19,0 z M 532,342 l 19,0 0,19 -19,0 z M 551,342 l 19,0 0,19 -19,0 z M 589,342 l 19,0 0,19 -19,0 z M 38,361 l 19,0 0,19 -19,0 z M 76,361 l 19,0 0,19 -19,0 z M 133,361 l 19,0 0,19 -19,0 z M 171,361 l 19,0 0,19 -19,0 z M 209,361 l 19,0 0,19 -19,0 z M 266,361 l 19,0 0,19 -19,0 z M 304,361 l 19,0 0,19 -19,0 z M 342,361 l 19,0 0,19 -19,0 z M 361,361 l 19,0 0,19 -19,0 z M 380,361 l 19,0 0,19 -19,0 z M 399,361 l 19,0 0,19 -19,0 z M 437,361 l 19,0 0,19 -19,0 z M 494,361 l 19,0 0,19 -19,0 z M 532,361 l 19,0 0,19 -19,0 z M 570,361 l 19,0 0,19 -19,0 z M 19,380 l 19,0 0,19 -19,0 z M 38,380 l 19,0 0,19 -19,0 z M 57,380 l 19,0 0,19 -19,0 z M 95,380 l 19,0 0,19 -19,0 z M 114,380 l 19,0 0,19 -19,0 z M 171,380 l 19,0 0,19 -19,0 z M 190,380 l 19,0 0,19 -19,0 z M 209,380 l 19,0 0,19 -19,0 z M 323,380 l 19,0 0,19 -19,0 z M 342,380 l 19,0 0,19 -19,0 z M 361,380 l 19,0 0,19 -19,0 z M 418,380 l 19,0 0,19 -19,0 z M 437,380 l 19,0 0,19 -19,0 z M 456,380 l 19,0 0,19 -19,0 z M 475,380 l 19,0 0,19 -19,0 z M 513,380 l 19,0 0,19 -19,0 z M 532,380 l 19,0 0,19 -19,0 z M 589,380 l 19,0 0,19 -19,0 z M 0,399 l 19,0 0,19 -19,0 z M 38,399 l 19,0 0,19 -19,0 z M 57,399 l 19,0 0,19 -19,0 z M 76,399 l 19,0 0,19 -19,0 z M 171,399 l 19,0 0,19 -19,0 z M 190,399 l 19,0 0,19 -19,0 z M 228,399 l 19,0 0,19 -19,0 z M 247,399 l 19,0 0,19 -19,0 z M 266,399 l 19,0 0,19 -19,0 z M 285,399 l 19,0 0,19 -19,0 z M 323,399 l 19,0 0,19 -19,0 z M 342,399 l 19,0 0,19 -19,0 z M 361,399 l 19,0 0,19 -19,0 z M 437,399 l 19,0 0,19 -19,0 z M 494,399 l 19,0 0,19 -19,0 z M 551,399 l 19,0 0,19 -19,0 z M 589,399 l 19,0 0,19 -19,0 z M 608,399 l 19,0 0,19 -19,0 z M 0,418 l 19,0 0,19 -19,0 z M 38,418 l 19,0 0,19 -19,0 z M 95,418 l 19,0 0,19 -19,0 z M 114,418 l 19,0 0,19 -19,0 z M 247,418 l 19,0 0,19 -19,0 z M 266,418 l 19,0 0,19 -19,0 z M 285,418 l 19,0 0,19 -19,0 z M 304,418 l 19,0 0,19 -19,0 z M 380,418 l 19,0 0,19 -19,0 z M 399,418 l 19,0 0,19 -19,0 z M 513,418 l 19,0 0,19 -19,0 z M 551,418 l 19,0 0,19 -19,0 z M 589,418 l 19,0 0,19 -19,0 z M 0,437 l 19,0 0,19 -19,0 z M 38,437 l 19,0 0,19 -19,0 z M 133,437 l 19,0 0,19 -19,0 z M 228,437 l 19,0 0,19 -19,0 z M 247,437 l 19,0 0,19 -19,0 z M 304,437 l 19,0 0,19 -19,0 z M 361,437 l 19,0 0,19 -19,0 z M 380,437 l 19,0 0,19 -19,0 z M 399,437 l 19,0 0,19 -19,0 z M 437,437 l 19,0 0,19 -19,0 z M 456,437 l 19,0 0,19 -19,0 z M 494,437 l 19,0 0,19 -19,0 z M 551,437 l 19,0 0,19 -19,0 z M 570,437 l 19,0 0,19 -19,0 z M 0,456 l 19,0 0,19 -19,0 z M 57,456 l 19,0 0,19 -19,0 z M 76,456 l 19,0 0,19 -19,0 z M 95,456 l 19,0 0,19 -19,0 z M 114,456 l 19,0 0,19 -19,0 z M 133,456 l 19,0 0,19 -19,0 z M 228,456 l 19,0 0,19 -19,0 z M 266,456 l 19,0 0,19 -19,0 z M 323,456 l 19,0 0,19 -19,0 z M 361,456 l 19,0 0,19 -19,0 z M 418,456 l 19,0 0,19 -19,0 z M 456,456 l 19,0 0,19 -19,0 z M 475,456 l 19,0 0,19 -19,0 z M 494,456 l 19,0 0,19 -19,0 z M 513,456 l 19,0 0,19 -19,0 z M 532,456 l 19,0 0,19 -19,0 z M 608,456 l 19,0 0,19 -19,0 z M 152,475 l 19,0 0,19 -19,0 z M 171,475 l 19,0 0,19 -19,0 z M 342,475 l 19,0 0,19 -19,0 z M 361,475 l 19,0 0,19 -19,0 z M 380,475 l 19,0 0,19 -19,0 z M 399,475 l 19,0 0,19 -19,0 z M 418,475 l 19,0 0,19 -19,0 z M 456,475 l 19,0 0,19 -19,0 z M 532,475 l 19,0 0,19 -19,0 z M 570,475 l 19,0 0,19 -19,0 z M 608,475 l 19,0 0,19 -19,0 z M 0,494 l 19,0 0,19 -19,0 z M 19,494 l 19,0 0,19 -19,0 z M 38,494 l 19,0 0,19 -19,0 z M 57,494 l 19,0 0,19 -19,0 z M 76,494 l 19,0 0,19 -19,0 z M 95,494 l 19,0 0,19 -19,0 z M 114,494 l 19,0 0,19 -19,0 z M 152,494 l 19,0 0,19 -19,0 z M 190,494 l 19,0 0,19 -19,0 z M 209,494 l 19,0 0,19 -19,0 z M 228,494 l 19,0 0,19 -19,0 z M 285,494 l 19,0 0,19 -19,0 z M 323,494 l 19,0 0,19 -19,0 z M 342,494 l 19,0 0,19 -19,0 z M 380,494 l 19,0 0,19 -19,0 z M 399,494 l 19,0 0,19 -19,0 z M 418,494 l 19,0 0,19 -19,0 z M 437,494 l 19,0 0,19 -19,0 z M 456,494 l 19,0 0,19 -19,0 z M 494,494 l 19,0 0,19 -19,0 z M 532,494 l 19,0 0,19 -19,0 z M 551,494 l 19,0 0,19 -19,0 z M 570,494 l 19,0 0,19 -19,0 z M 589,494 l 19,0 0,19 -19,0 z M 0,513 l 19,0 0,19 -19,0 z M 114,513 l 19,0 0,19 -19,0 z M 190,513 l 19,0 0,19 -19,0 z M 209,513 l 19,0 0,19 -19,0 z M 266,513 l 19,0 0,19 -19,0 z M 285,513 l 19,0 0,19 -19,0 z M 304,513 l 19,0 0,19 -19,0 z M 399,513 l 19,0 0,19 -19,0 z M 418,513 l 19,0 0,19 -19,0 z M 437,513 l 19,0 0,19 -19,0 z M 456,513 l 19,0 0,19 -19,0 z M 532,513 l 19,0 0,19 -19,0 z M 551,513 l 19,0 0,19 -19,0 z M 570,513 l 19,0 0,19 -19,0 z M 608,513 l 19,0 0,19 -19,0 z M 0,532 l 19,0 0,19 -19,0 z M 38,532 l 19,0 0,19 -19,0 z M 57,532 l 19,0 0,19 -19,0 z M 76,532 l 19,0 0,19 -19,0 z M 114,532 l 19,0 0,19 -19,0 z M 152,532 l 19,0 0,19 -19,0 z M 171,532 l 19,0 0,19 -19,0 z M 190,532 l 19,0 0,19 -19,0 z M 209,532 l 19,0 0,19 -19,0 z M 285,532 l 19,0 0,19 -19,0 z M 323,532 l 19,0 0,19 -19,0 z M 361,532 l 19,0 0,19 -19,0 z M 418,532 l 19,0 0,19 -19,0 z M 456,532 l 19,0 0,19 -19,0 z M 475,532 l 19,0 0,19 -19,0 z M 494,532 l 19,0 0,19 -19,0 z M 513,532 l 19,0 0,19 -19,0 z M 532,532 l 19,0 0,19 -19,0 z M 589,532 l 19,0 0,19 -19,0 z M 0,551 l 19,0 0,19 -19,0 z M 38,551 l 19,0 0,19 -19,0 z M 57,551 l 19,0 0,19 -19,0 z M 76,551 l 19,0 0,19 -19,0 z M 114,551 l 19,0 0,19 -19,0 z M 152,551 l 19,0 0,19 -19,0 z M 171,551 l 19,0 0,19 -19,0 z M 190,551 l 19,0 0,19 -19,0 z M 228,551 l 19,0 0,19 -19,0 z M 247,551 l 19,0 0,19 -19,0 z M 266,551 l 19,0 0,19 -19,0 z M 304,551 l 19,0 0,19 -19,0 z M 342,551 l 19,0 0,19 -19,0 z M 361,551 l 19,0 0,19 -19,0 z M 380,551 l 19,0 0,19 -19,0 z M 399,551 l 19,0 0,19 -19,0 z M 437,551 l 19,0 0,19 -19,0 z M 456,551 l 19,0 0,19 -19,0 z M 475,551 l 19,0 0,19 -19,0 z M 513,551 l 19,0 0,19 -19,0 z M 532,551 l 19,0 0,19 -19,0 z M 551,551 l 19,0 0,19 -19,0 z M 570,551 l 19,0 0,19 -19,0 z M 589,551 l 19,0 0,19 -19,0 z M 608,551 l 19,0 0,19 -19,0 z M 0,570 l 19,0 0,19 -19,0 z M 38,570 l 19,0 0,19 -19,0 z M 57,570 l 19,0 0,19 -19,0 z M 76,570 l 19,0 0,19 -19,0 z M 114,570 l 19,0 0,19 -19,0 z M 152,570 l 19,0 0,19 -19,0 z M 171,570 l 19,0 0,19 -19,0 z M 247,570 l 19,0 0,19 -19,0 z M 266,570 l 19,0 0,19 -19,0 z M 285,570 l 19,0 0,19 -19,0 z M 342,570 l 19,0 0,19 -19,0 z M 437,570 l 19,0 0,19 -19,0 z M 494,570 l 19,0 0,19 -19,0 z M 0,589 l 19,0 0,19 -19,0 z M 114,589 l 19,0 0,19 -19,0 z M 152,589 l 19,0 0,19 -19,0 z M 171,589 l 19,0 0,19 -19,0 z M 228,589 l 19,0 0,19 -19,0 z M 247,589 l 19,0 0,19 -19,0 z M 361,589 l 19,0 0,19 -19,0 z M 380,589 l 19,0 0,19 -19,0 z M 399,589 l 19,0 0,19 -19,0 z M 475,589 l 19,0 0,19 -19,0 z M 494,589 l 19,0 0,19 -19,0 z M 551,589 l 19,0 0,19 -19,0 z M 570,589 l 19,0 0,19 -19,0 z M 0,608 l 19,0 0,19 -19,0 z M 19,608 l 19,0 0,19 -19,0 z M 38,608 l 19,0 0,19 -19,0 z M 57,608 l 19,0 0,19 -19,0 z M 76,608 l 19,0 0,19 -19,0 z M 95,608 l 19,0 0,19 -19,0 z M 114,608 l 19,0 0,19 -19,0 z M 152,608 l 19,0 0,19 -19,0 z M 171,608 l 19,0 0,19 -19,0 z M 228,608 l 19,0 0,19 -19,0 z M 266,608 l 19,0 0,19 -19,0 z M 285,608 l 19,0 0,19 -19,0 z M 304,608 l 19,0 0,19 -19,0 z M 323,608 l 19,0 0,19 -19,0 z M 361,608 l 19,0 0,19 -19,0 z M 456,608 l 19,0 0,19 -19,0 z M 494,608 l 19,0 0,19 -19,0 z M 589,608 l 19,0 0,19 -19,0 z " />
	</g>
</svg>
